{
	"asset":{
		"generator":"Khronos glTF Blender I/O v4.5.49",
		"version":"2.0"
	},
	"extensionsUsed":[
		"KHR_materials_specular"
	],
	"scene":0,
	"scenes":[
		{
			"name":"Scene",
			"nodes":[
				0
			]
		}
	],
	"nodes":[
		{
			"mesh":0,
			"name":"Ashi_Nail4",
			"rotation":[
				0.7071068286895752,
				0,
				0,
				0.7071068286895752
			],
			"translation":[
				0,
				0.8372585773468018,
				0
			]
		}
	],
	"materials":[
		{
			"doubleSided":true,
			"extensions":{
				"KHR_materials_specular":{
					"specularFactor":0
				}
			},
			"name":"snorlax",
			"pbrMetallicRoughness":{
				"baseColorTexture":{
					"index":0
				},
				"metallicFactor":0,
				"metallicRoughnessTexture":{
					"index":1
				}
			}
		}
	],
	"meshes":[
		{
			"name":"Ashi_Nail4",
			"primitives":[
				{
					"attributes":{
						"POSITION":0,
						"NORMAL":1,
						"TEXCOORD_0":2
					},
					"indices":3,
					"material":0
				}
			]
		}
	],
	"textures":[
		{
			"sampler":0,
			"source":0
		},
		{
			"sampler":0,
			"source":1
		}
	],
	"images":[
		{
			"mimeType":"image/png",
			"name":"baseColor.png",
			"uri":"baseColor.png"
		},
		{
			"mimeType":"image/png",
			"name":"metallicRoughness.png",
			"uri": "metallicRoughness.png"
		}
	],
	"accessors":[
		{
			"bufferView":0,
			"componentType":5126,
			"count":2174,
			"max":[
				10.525300025939941,
				9.004339218139648,
				1.313599944114685
			],
			"min":[
				-12.963199615478516,
				-11.488510131835938,
				-13.61446762084961
			],
			"type":"VEC3"
		},
		{
			"bufferView":1,
			"componentType":5126,
			"count":2174,
			"type":"VEC3"
		},
		{
			"bufferView":2,
			"componentType":5126,
			"count":2174,
			"type":"VEC2"
		},
		{
			"bufferView":3,
			"componentType":5123,
			"count":9702,
			"type":"SCALAR"
		}
	],
	"bufferViews":[
		{
			"buffer":0,
			"byteLength":26088,
			"byteOffset":0,
			"target":34962
		},
		{
			"buffer":0,
			"byteLength":26088,
			"byteOffset":26088,
			"target":34962
		},
		{
			"buffer":0,
			"byteLength":17392,
			"byteOffset":52176,
			"target":34962
		},
		{
			"buffer":0,
			"byteLength":19404,
			"byteOffset":69568,
			"target":34963
		}
	],
	"samplers":[
		{
			"magFilter":9729,
			"minFilter":9987
		}
	],
	"buffers":[
		{
			"byteLength":88972,
			"uri":"ronflex.bin"
		}
	]
}
